<svg xmlns="http://www.w3.org/2000/svg" id="Laag_1" data-name="Laag 1" viewBox="0 0 1072 768"><defs><style>.cls-1{fill:#212240}.cls-2{fill:#ed6f2b}.cls-3{fill:#bdbec0}.cls-4{fill:#245627}.cls-5,.cls-7,.cls-8{fill:#fff}.cls-6{opacity:.1}.cls-7,.cls-8{isolation:isolate;font-size:13.25px;font-family:MyriadPro-Regular,Myriad Pro;letter-spacing:-.05em}</style></defs><g id="Wimbledon_Centre_Court" data-name="Wimbledon Centre Court"><path id="Ground" d="M339.6 720 199.24 517.13V254.52l57.95-92.3 81.98-56.12V48h335.74l113.23 64.86 84.62 106.83v306.18l-80.79 141.18L695.53 720H339.6z" class="cls-1"/><g id="Stand"><path d="m733.51 205.17 37.64 52.22-10.36 2.6-34.08-47.27 6.8-7.55zM720.29 575.24l-48.44 34.06-14.05-62.95 23.82-13.81 18.19-35.59 58.41 5.68-37.93 72.61zM359.78 610.17l-53.81-30.95 44.39-45.37 23.38 13.11h137.07v63.21H359.78zM260.06 439.06h69.72v49.96h-69.72zM260.05 491.49h69.73v14.33l18.75 26.35-44.47 45.46-44.01-75.57v-10.57zM513.3 546.96h142.1l14.09 63.21H513.3v-63.21zM670.05 612.66l2.21 9.93H513.3v-9.93h156.75zM701.03 494.57l.21-.42V391.18h57.68v109.03l-57.89-5.64zM701.24 388.69V278.78l-.72-1.18 58.4-14.59v125.68h-57.68zM510.55 232.91H371.48l-13.85-62.1h152.92v62.1zM298.12 200.87l-7.35-7.27 61.68-34.62 2.26 10.11-56.59 31.78zM298.8 203.34l56.48-31.7 13.79 61.9L348 245.68l-17.67 36.72-69.57-15.18 38.04-63.88zM329.78 284.83v60.4h-69.73V269.6l69.73 15.23zM257.58 501.41l-9.95 2.23V392.53h9.95v108.88zM258.2 503.81l44.05 75.67-7.21 7.35-47.01-80.73 10.17-2.29zM304.18 581.05l54.02 31.08v10.46h-1.75L297 588.38l7.18-7.33zM360.69 612.66h150.13v9.93H360.69zM672.43 611.93l48.71-34.26 7.49 6.89-53.85 37.87-2.35-10.5zM730.36 582.77l-7.57-6.96 38.08-72.91 10.47 1.42-40.98 78.45zM761.4 500.45V391.18h9.94v110.24l-9.94-.97zM761.4 388.69v-126.3l9.94-2.47v128.77h-9.94zM510.55 168.33H357.08l-2.2-9.93h155.67v9.93zM296.34 202.62l-38.14 64.04-10.22-2.23 41.09-69.03 7.27 7.22zM257.58 269.06v120.98h-9.95V266.9l9.95 2.16zM513.03 170.81v62.1h145.58l6.88-62.1H513.03zM667.85 172.03l-6.84 61.79 24.86 19.83 13.3 21.73 59.02-14.74-33.97-47.13-56.37-41.48zM666.71 158.4H513.03v9.93h152.73l.03-.13.92-9.8zM669.21 158.4l-.97 10.05-.07.73L724.9 211l6.7-7.4-61.33-45.2h-1.06z" class="cls-2"/><path d="m785.39 578.95 33.63 22.5-23.57 41.18-29.04-26.71 18.98-36.97zM764.51 614.19l-34.15-31.42 40.84-78.18.14-.27v-.41l47.4 4.63-54.23 105.65zM275.09 610.77 297 588.38l59.17 34.03.28.18h1.75v41l-66.15-28.32-16.96-24.5zM247.63 266.9v123.14h-39.29V258.33l39.29 8.57zM412.85 57.12h61.82v51.89h-61.82zM477.15 57.12h64.02v51.89h-64.02zM513.3 664.23v-41.64h158.96l9.29 41.64H513.3zM360.69 622.59h150.13v41.65H360.69zM771.34 259.92l48.08-12.02v140.79h-48.08V259.92zM771.15 257.39l-37.64-52.22 30.39-33.63 54.67 74.02-47.42 11.83z" class="cls-3"/><path d="m764.99 168.84-13.12-8.55 31.06-39.35 32.53 41.05-32.16 31.62-18.31-24.77zM749.78 158.92l-75.73-49.36V58.01l107.01 61.28-31.28 39.63zM607.96 57.12h63.61v51.89h-63.61zM543.66 57.12h61.82v51.89h-61.82zM290.77 193.6l-25.83-25.64 77.67-53.18 9.84 44.2-61.68 34.62zM208.34 392.53h39.29v111.11l-39.29 8.8V392.53zM248.03 506.1l47.01 80.73-21.38 21.86-64.89-93.8 39.26-8.79zM360.69 666.7h56.02v44.19h-56.02zM419.2 666.7h61.55v44.19H419.2zM483.22 666.7h65.41v44.19h-65.41zM551.11 666.7h65.41v44.19h-65.41zM619 666.71h63.11l9.86 44.18H619v-44.18zM684.51 666.07l40.48-24.28 22.67 39.2-53.29 29.27-9.86-44.19zM683.94 663.52l-9.16-41.09 53.85-37.87 34.32 31.56-79.01 47.4zM771.34 501.42V391.18h48.08v114.93l-48.08-4.69zM821.91 391.18h41.74v119.23l-41.74-4.06V391.18zM863.65 388.69h-41.74V247.28l41.74-10.43v151.84zM863.65 234.29l-42.48 10.61-37.12-50.25.85.86 32.11-31.56 46.64 58.91v11.43zM348.27 57.12h62.1v51.89h-62.1zM347.41 111.48h163.14v46.92H354.88l-10.07-45.15 2.6-1.77zM263.22 169.76l25.85 25.64-41.09 69.03-38.88-8.49 54.12-86.18zM294.71 639.11l63.49 27.18v44.6h-13.83l-49.66-71.78zM785.33 660.3l-35.48 19.49-22.73-39.28 37.74-22.64 29.32 26.97-8.85 15.46zM820.26 599.29l-33.72-22.56 34.87-67.94 42.24 4.12v10.54l-43.39 75.84zM671.2 111.48H513.03v46.92h153.68l4.49-46.92z" class="cls-3"/><path d="m670.27 158.4 61.33 45.2 30.49-33.78-88.46-57.57-4.42 46.15h1.06zM260.05 347.71H335.85v88.87H260.05v-88.87zM370.82 235.4h139.73v53.81H332.26v-5.1l17.65-36.65 20.91-12.06zM698.75 279.49v214.06l-.38.76-53.15-5.18V291.42l52.77-13.18.76 1.25zM656.06 544.49H513.3v-53h130.63l53.22 5.2-17.41 34.08-23.68 13.72zM350.99 531.35l-18.73-26.31v-13.55h178.55v53H374.4l-23.41-13.14zM643.83 289.21h-130.8V235.4H659l24.87 19.73 12.77 20.88-52.81 13.2zM708.547 134.8l24.524-40.082 1.416.866-24.524 40.083z" class="cls-3"/><path d="M609.07 235.4h1.66v53.82h-1.66zM557.73 235.4h1.66v53.82h-1.66zM455.35 235.4h1.66v53.82h-1.66zM401.26 235.4h1.66v53.82h-1.66zM609.07 491.49h1.66v52.98h-1.66zM557.73 491.49h1.66v52.98h-1.66zM455.35 491.49h1.66v52.98h-1.66zM401.26 491.49h1.66v52.98h-1.66zM432.44 111.48h1.66v56.85h-1.66zM587.12 612.66h1.66v51.58h-1.66zM449.14 666.7h1.66v44.19h-1.66zM654.65 666.7h1.66v44.19h-1.66z" class="cls-3"/></g><path id="Ground-2" d="M332.26 345.23v-53.54h310.47v197.33H332.26v-49.96h6.07v-93.83h-6.07z" class="cls-4"/><g id="Court"><path d="M569.39 429.18H410.84v-75.77h158.55ZM412.09 428h156.05v-73.34h-156Z" class="cls-5"/><path d="M489.49 348.24h1.24v86.11h-1.24z" class="cls-5"/><path d="M411.47 363.62h157.3v1.24h-157.3zM411.47 417.71h157.3v1.24h-157.3z" class="cls-5"/><path d="M446.99 364.25h1.24v54.09h-1.24zM531.99 364.25h1.24v54.09h-1.24z" class="cls-5"/><path d="M447.62 390.67h85v1.24h-85z" class="cls-5"/></g><g class="cls-6"><path d="M548.34 315.85a5.28 5.28 0 0 0-1.19-.12l-7.24 1-7.22 1-6.18.84-7.1 1a5.63 5.63 0 0 0-2.93 1 4.84 4.84 0 0 0-1.79 2.91 6.88 6.88 0 0 0-.15 1.43v14.36a5.42 5.42 0 0 0 .49 2.37 4.59 4.59 0 0 0 4.27 2.67 7.06 7.06 0 0 0 .92 0l6.67-.87v91.86a4.72 4.72 0 0 0 1.2 3.32 4.63 4.63 0 0 0 3.49 1.42h15.63a4.49 4.49 0 0 0 4.69-4.28V320.41a4.44 4.44 0 0 0-3.56-4.56Zm-1.1 32.31v87.22H531.5v-97.24l-11.93 1.55a1.55 1.55 0 0 1-.43 0 1.09 1.09 0 0 1 0-.44V324.9a1.49 1.49 0 0 1 .1-.69 1.18 1.18 0 0 1 .61-.15l1.42-.18 6.18-.84 7.23-1 12.68-1.72v27.81ZM498.6 332a20.25 20.25 0 0 0-5.87-10.57 18.54 18.54 0 0 0-4.12-2.84 24 24 0 0 0-7.1-2.3 36.13 36.13 0 0 0-6-.49H433.1a4.49 4.49 0 0 0-4.7 4.27 2.94 2.94 0 0 0 0 .42v43.2a4.47 4.47 0 0 0 4.27 4.67h16a4.39 4.39 0 0 0 4.68-4.07 3.21 3.21 0 0 0 0-.62v-23.6h17.45a4.33 4.33 0 0 1 2.6.63 2.83 2.83 0 0 1 1 2 7.41 7.41 0 0 1 .07 1.05v28.13a3.52 3.52 0 0 1-1.16 3.05l-.12.09-.27.12-.3.15h-.08l-.27.07-.3.08h-.11a9.55 9.55 0 0 1-1.07 0h-38.31a4.47 4.47 0 0 0-4.08 4.66v55a4.5 4.5 0 0 0 4.3 4.7 2.67 2.67 0 0 0 .4 0h15.56a4.39 4.39 0 0 0 4.69-4.06 4.56 4.56 0 0 0 0-.64v-35.2h22.25c1 0 1.86 0 2.71-.08a29.31 29.31 0 0 0 6.83-1.28 19.91 19.91 0 0 0 2.84-1.11 19.08 19.08 0 0 0 10.23-12.19 31.13 31.13 0 0 0 1.24-8.52v-38.64a31.73 31.73 0 0 0-.85-6.08Zm-3.79 27.72v16.4a30 30 0 0 1-.54 5.83c-1.32 6.52-5.06 10.69-11.17 12.45a25.56 25.56 0 0 1-5.14.86c-.75.06-1.54.09-2.39.09h-26.84v40.08H433v-55.27h37.8a13.35 13.35 0 0 0 1.79-.13l.64-.16h.3a2.28 2.28 0 0 0 .69-.18 3.32 3.32 0 0 0 .6-.29l.2-.08a5.59 5.59 0 0 0 .68-.36l.31-.22a7.82 7.82 0 0 0 3.07-6.79v-28.13a13.7 13.7 0 0 0-.11-1.69 7.42 7.42 0 0 0-2.3-4.61 8 8 0 0 0-4.59-1.91c-.42 0-.85-.07-1.28-.07h-22.06v28.23H433v-43.44h44.42a23 23 0 0 1 8.1 1.76 14.21 14.21 0 0 1 4 2.53 17 17 0 0 1 5.17 11.28 33.64 33.64 0 0 1 .2 3.62v20.11ZM436.24 466.86h-3.41v-13.25h-4.37v-2.84h12.16v2.84h-4.38ZM454 460.64v6.18h-3.41v-16.05h4.69a8.06 8.06 0 0 1 4.86 1.19 4.26 4.26 0 0 1 1.58 3.62 4.37 4.37 0 0 1-.78 2.53 5.23 5.23 0 0 1-2.22 1.73c2.41 3.63 4 6 4.73 7h-3.78l-3.85-6.22Zm0-2.77h1a4.22 4.22 0 0 0 2.39-.54 2 2 0 0 0 .77-1.7 1.73 1.73 0 0 0-.78-1.62 4.77 4.77 0 0 0-2.38-.47h-1ZM483.57 466.86l-1.16-3.86h-5.87l-1.16 3.83h-3.68l5.68-16.16h4.16l5.68 16.16Zm-2-6.69c-1.08-3.48-1.67-5.44-1.82-5.89s-.22-.81-.28-1.08c-.24.94-.93 3.27-2.09 7ZM505.82 450.77h3.45l-5.49 16.09h-3.72l-5.45-16.09h3.45l3 9.57c.17.57.34 1.22.52 2a15.06 15.06 0 0 1 .33 1.57 29 29 0 0 1 .82-3.55ZM529 466.86h-9.28v-16.09H529v2.84h-5.82v3.52h5.45V460h-5.45v4.15h5.86ZM541.89 466.86v-16.09h3.41V464h6.54v2.84Z" class="cls-5"/></g></g><g id="Seat_Number" data-name="Seat Number"><text class="cls-7" transform="matrix(.99 0 0 1 369.01 86.85)">501</text><text class="cls-7" transform="matrix(.99 0 0 1 433.44 86.85)">502</text><text class="cls-7" transform="matrix(.99 0 0 1 500.23 86.85)">503</text><text class="cls-8" transform="matrix(.99 0 0 1 564.27 86.85)">504</text><text class="cls-8" transform="matrix(.99 0 0 1 629.45 86.85)">505</text><text class="cls-8" transform="matrix(.99 0 0 1 688.24 102.16)">506</text><text class="cls-8" transform="matrix(.99 0 0 1 734.61 132.36)">507</text><text class="cls-8" transform="matrix(.99 0 0 1 773.75 163.95)">508</text><text class="cls-8" transform="matrix(.99 0 0 1 813.54 211)">509</text><text class="cls-8" transform="matrix(.99 0 0 1 832.48 318.3)">510</text><text class="cls-8" transform="matrix(.99 0 0 1 832.48 455.73)">511</text><text class="cls-8" transform="matrix(.99 0 0 1 813.13 557.39)">512</text><text class="cls-8" transform="matrix(.99 0 0 1 782.41 614.19)">513</text><text class="cls-8" transform="matrix(.99 0 0 1 750.35 652.27)">514</text><text class="cls-8" transform="matrix(.99 0 0 1 705.77 679.79)">515</text><text class="cls-8" transform="matrix(.99 0 0 1 662.12 695.53)">516</text><text class="cls-8" transform="matrix(.99 0 0 1 627.35 695.53)">517</text><text class="cls-8" transform="matrix(.99 0 0 1 573.5 695.53)">518</text><text class="cls-7" transform="matrix(.99 0 0 1 505.62 695.53)">519</text><text class="cls-7" transform="matrix(.99 0 0 1 455.52 695.53)">520</text><text class="cls-7" transform="matrix(.99 0 0 1 425.45 695.53)">521</text><text class="cls-7" transform="matrix(.99 0 0 1 378.39 695.53)">522</text><text class="cls-7" transform="matrix(.99 0 0 1 331.2 684.76)">523</text><text class="cls-7" transform="matrix(.99 0 0 1 217.68 328.47)">301</text><text class="cls-7" transform="matrix(.99 0 0 1 244.72 223.1)">302</text><text class="cls-7" transform="matrix(.99 0 0 1 300.59 163.37)">303</text><text class="cls-7" transform="matrix(.99 0 0 1 384.5 139.9)">304</text><text class="cls-7" transform="matrix(.99 0 0 1 464.35 139.9)">305</text><text class="cls-8" transform="matrix(.99 0 0 1 581.8 139.9)">306</text><text class="cls-8" transform="matrix(.99 0 0 1 699.29 168.33)">307</text><text class="cls-8" transform="matrix(.99 0 0 1 761.03 223.71)">308</text><text class="cls-8" transform="matrix(.99 0 0 1 785.08 324.31)">309</text><text class="cls-8" transform="matrix(.99 0 0 1 785.08 450.8)">310</text><text class="cls-8" transform="matrix(.99 0 0 1 761.03 554.04)">311</text><text class="cls-8" transform="matrix(.99 0 0 1 705.77 624.03)">312</text><text class="cls-8" transform="matrix(.99 0 0 1 621.53 648.84)">313</text><text class="cls-8" transform="matrix(.99 0 0 1 538.32 648.84)">314</text><text class="cls-7" transform="matrix(.99 0 0 1 425.45 648.84)">315</text><text class="cls-7" transform="matrix(.99 0 0 1 306.34 625.98)">316</text><text class="cls-7" transform="matrix(.99 0 0 1 244.72 554.04)">317</text><text class="cls-7" transform="matrix(.99 0 0 1 217.68 452.49)">318</text><text class="cls-7" transform="matrix(.99 0 0 1 271.84 395.04)">R</text><text class="cls-8" transform="matrix(.99 0 0 1 278.98 395.04)">o</text><text class="cls-8" transform="matrix(.99 0 0 1 285.82 395.04)">y</text><text class="cls-7" transform="matrix(.99 0 0 1 291.95 395.04)">al</text><text class="cls-7" transform="matrix(.99 0 0 1 303.23 395.04)">B</text><text class="cls-8" transform="matrix(.99 0 0 1 310.6 395.04)">o</text><text class="cls-8" transform="matrix(.99 0 0 1 317.24 395.04)">x</text><text class="cls-7" transform="matrix(.99 0 0 1 284.61 313.91)">201</text><text class="cls-7" transform="matrix(.99 0 0 1 306.34 232.91)">202</text><text class="cls-7" transform="matrix(.99 0 0 1 422.39 205.17)">203</text><text class="cls-8" transform="matrix(.99 0 0 1 581.8 205.17)">204</text><text class="cls-8" transform="matrix(.99 0 0 1 694.38 236.85)">205</text><text class="cls-8" transform="matrix(.99 0 0 1 719.41 333.78)">206</text><text class="cls-8" transform="matrix(.99 0 0 1 719.41 445.7)">207</text><text class="cls-8" transform="matrix(.99 0 0 1 694.38 553.13)">208</text><text class="cls-8" transform="matrix(.99 0 0 1 577.65 582.77)">209</text><text class="cls-7" transform="matrix(.99 0 0 1 425.45 582.77)">210</text><text class="cls-7" transform="matrix(.99 0 0 1 298.08 533.85)">211</text><text class="cls-7" transform="matrix(.99 0 0 1 284.72 467.08)">212</text></g></svg>